<svg aria-hidden="true" style="position: absolute; width: 0; height: 0; overflow: hidden;" version="1.1" xmlns="http://www.w3.org/2000/svg" xmlns:xlink="http://www.w3.org/1999/xlink">
<defs>

<symbol id="icon-antenna" viewBox="0 0 32 32">
<path fill="#2e2f42" style="fill: var(--color1, #2e2f42)" d="M30.773 22.098l-8.443-8.505 0.937-4.615c0.242 0.094 0.499 0.144 0.758 0.146h0.006c1.192 0.014 2.17-0.941 2.184-2.133s-0.941-2.17-2.133-2.184c-1.192-0.014-2.17 0.941-2.184 2.133-0.003 0.255 0.039 0.509 0.125 0.749l-4.96 0.605-8.091-8.133c-0.099-0.101-0.235-0.159-0.377-0.16-0.14 0.001-0.274 0.056-0.373 0.155l-1.513 1.504c-0.208 0.208-0.208 0.546 0 0.754l0.814 0.826c-3.153 5.798-2.129 12.978 2.519 17.663 0.043 0.041 0.092 0.074 0.146 0.098-0.034 0.18-0.051 0.364-0.052 0.547v6.187h-6.4c-1.472 0.002-2.665 1.195-2.667 2.667v1.067c0 0.295 0.239 0.533 0.533 0.533h24.533c0.295 0 0.533-0.239 0.533-0.533v-1.067c-0.002-1.472-1.195-2.665-2.667-2.667h-6.4v-2.742c1.003 0.21 2.024 0.317 3.049 0.32 2.458-0.003 4.877-0.615 7.040-1.783l0.818 0.823c0.099 0.101 0.235 0.159 0.377 0.16 0.14-0.001 0.274-0.056 0.373-0.155l1.513-1.504c0.208-0.208 0.208-0.546 0-0.754zM23.28 6.233c0.418-0.415 1.093-0.414 1.509 0.004s0.414 1.093-0.004 1.508c-0.2 0.199-0.47 0.31-0.752 0.31h-0.003c-0.589-0.003-1.064-0.483-1.061-1.072 0.002-0.282 0.115-0.552 0.314-0.751h-0.002zM22.024 9.738l-0.598 2.946-1.175-1.182 1.774-1.763zM21.419 8.836l-1.92 1.909-1.485-1.493 3.405-0.415zM24.004 28.8c0.884 0 1.6 0.716 1.6 1.6v0.533h-23.467v-0.533c0-0.884 0.716-1.6 1.6-1.6h20.267zM16.537 26.667v1.067h-5.333v-1.067h5.333zM11.204 25.6v-4.053c0-1.294 1.196-2.347 2.667-2.347s2.667 1.053 2.667 2.347v4.053h-5.333zM17.604 23.904v-2.357c0-1.882-1.675-3.413-3.733-3.413-1.331-0.020-2.576 0.657-3.281 1.786-4.058-4.274-4.971-10.645-2.279-15.887l18.602 18.708c-2.872 1.461-6.165 1.873-9.309 1.163zM28.893 23.22l-21.057-21.181 0.755-0.752 7.935 7.98c0.004 0 0.006 0.007 0.010 0.010l13.115 13.191-0.757 0.752z"></path>
<path fill="#4d5ae5" style="fill: var(--color2, #4d5ae5)" d="M13.876 20.267h-0.005c-0.884-0.001-1.601 0.714-1.602 1.598s0.714 1.601 1.598 1.602h0.005c0.884 0.001 1.601-0.714 1.602-1.598s-0.714-1.601-1.598-1.602zM14.249 22.245c-0.1 0.1-0.236 0.156-0.378 0.155-0.295-0.002-0.532-0.242-0.531-0.536 0.001-0.141 0.057-0.276 0.157-0.375s0.233-0.154 0.373-0.155c0.295 0.002 0.532 0.242 0.531 0.536-0.001 0.141-0.057 0.276-0.157 0.375h0.005z"></path>
</symbol>

<symbol id="icon-astronaut" viewBox="0 0 32 32">
<path fill="#4d5ae5" style="fill: var(--color2, #4d5ae5)" d="M31.974 4.524c-0.063-0.193-0.229-0.333-0.43-0.363l-1.91-0.278-0.855-1.731c-0.179-0.365-0.777-0.365-0.956 0l-0.855 1.731-1.91 0.278c-0.201 0.029-0.367 0.17-0.431 0.363-0.062 0.193-0.011 0.405 0.135 0.547l1.383 1.348-0.326 1.903c-0.034 0.2 0.048 0.402 0.212 0.522 0.166 0.121 0.382 0.135 0.562 0.040l1.709-0.899 1.709 0.899c0.078 0.041 0.164 0.061 0.249 0.061 0.11 0 0.221-0.034 0.314-0.102 0.164-0.119 0.246-0.322 0.212-0.522l-0.326-1.903 1.383-1.348c0.145-0.142 0.197-0.354 0.135-0.547zM29.511 5.851c-0.125 0.122-0.183 0.299-0.153 0.472l0.191 1.114-1-0.526c-0.078-0.041-0.163-0.061-0.249-0.061s-0.17 0.020-0.249 0.061l-1.001 0.526 0.191-1.114c0.030-0.173-0.028-0.349-0.153-0.472l-0.81-0.789 1.119-0.163c0.174-0.025 0.324-0.134 0.402-0.292l0.5-1.013 0.5 1.013c0.078 0.157 0.228 0.267 0.402 0.292l1.119 0.163-0.809 0.789z"></path>
<path fill="#4d5ae5" style="fill: var(--color2, #4d5ae5)" d="M26.133 20.522h-1.067v1.067h1.067v-1.067z"></path>
<path fill="#4d5ae5" style="fill: var(--color2, #4d5ae5)" d="M26.133 22.656h-1.067v1.067h1.067v-1.067z"></path>
<path fill="#4d5ae5" style="fill: var(--color2, #4d5ae5)" d="M27.2 21.589h-1.067v1.067h1.067v-1.067z"></path>
<path fill="#4d5ae5" style="fill: var(--color2, #4d5ae5)" d="M25.067 21.589h-1.067v1.067h1.067v-1.067z"></path>
<path fill="#4d5ae5" style="fill: var(--color2, #4d5ae5)" d="M22.4 26.389h-1.067v1.067h1.067v-1.067z"></path>
<path fill="#4d5ae5" style="fill: var(--color2, #4d5ae5)" d="M22.4 28.522h-1.067v1.067h1.067v-1.067z"></path>
<path fill="#4d5ae5" style="fill: var(--color2, #4d5ae5)" d="M23.467 27.456h-1.067v1.067h1.067v-1.067z"></path>
<path fill="#4d5ae5" style="fill: var(--color2, #4d5ae5)" d="M21.333 27.456h-1.067v1.067h1.067v-1.067z"></path>
<path fill="#4d5ae5" style="fill: var(--color2, #4d5ae5)" d="M16 24.256h-1.067v1.067h1.067v-1.067z"></path>
<path fill="#4d5ae5" style="fill: var(--color2, #4d5ae5)" d="M16 26.389h-1.067v1.067h1.067v-1.067z"></path>
<path fill="#4d5ae5" style="fill: var(--color2, #4d5ae5)" d="M17.067 25.322h-1.067v1.067h1.067v-1.067z"></path>
<path fill="#4d5ae5" style="fill: var(--color2, #4d5ae5)" d="M14.933 25.322h-1.067v1.067h1.067v-1.067z"></path>
<path fill="#4d5ae5" style="fill: var(--color2, #4d5ae5)" d="M5.867 6.122h-1.067v1.067h1.067v-1.067z"></path>
<path fill="#4d5ae5" style="fill: var(--color2, #4d5ae5)" d="M5.867 8.255h-1.067v1.067h1.067v-1.067z"></path>
<path fill="#4d5ae5" style="fill: var(--color2, #4d5ae5)" d="M6.933 7.189h-1.067v1.067h1.067v-1.067z"></path>
<path fill="#4d5ae5" style="fill: var(--color2, #4d5ae5)" d="M4.8 7.189h-1.067v1.067h1.067v-1.067z"></path>
<path fill="#2e2f42" style="fill: var(--color1, #2e2f42)" d="M24.715 14.159c-0.287-0.388-0.709-0.637-1.188-0.705-0.481-0.068-0.956 0.058-1.34 0.352l-1.252 0.96-1.898 1.417-1.358-0.541c2.421-1.086 4.114-3.508 4.114-6.32 0-3.823-3.123-6.933-6.961-6.933s-6.961 3.11-6.961 6.933c0 1.386 0.414 2.674 1.12 3.758l-2.764-0.024c-0.002 0-0.003 0-0.005 0-0.009 0-0.015 0.004-0.023 0.005-0.053 0.002-0.105 0.013-0.155 0.031-0.013 0.005-0.026 0.008-0.038 0.013-0.006 0.003-0.013 0.003-0.019 0.006l-3.233 1.596c-0.001 0-0.001 0-0.001 0.001l-1.893 0.911c-0.021 0.009-0.042 0.021-0.063 0.035-0.755 0.502-1.012 1.489-0.598 2.295 0.22 0.429 0.595 0.745 1.056 0.889 0.178 0.055 0.359 0.083 0.539 0.083 0.29 0 0.577-0.071 0.839-0.211l1.388-0.738 2.264-1.169 1.357-0.008-5.442 5.416c-0.001 0.001-0.001 0.001-0.002 0.001l-1.339 1.333c-0.316 0.315-0.49 0.732-0.49 1.178s0.174 0.863 0.49 1.179c0.325 0.323 0.752 0.485 1.179 0.485s0.854-0.162 1.18-0.485l1.314-1.309 1.741-1.3 0.901 0.897-1.762 1.754c-0 0.001-0.001 0.001-0.002 0.001l-1.339 1.333c-0.316 0.315-0.49 0.732-0.49 1.178s0.174 0.863 0.49 1.179c0.325 0.323 0.753 0.485 1.18 0.485s0.855-0.162 1.18-0.485l3.482-3.467c0.001-0.001 0.001-0.001 0.001-0.002l1.010-1-0.004-0.004c0.006-0.006 0.015-0.009 0.022-0.015l5.166-5.658 3.471 0.494c0.025 0.004 0.050 0.005 0.075 0.005 0.065 0 0.127-0.015 0.187-0.038 0.018-0.006 0.033-0.015 0.050-0.023 0.019-0.010 0.039-0.015 0.058-0.027l3.213-2.133c0.012-0.008 0.018-0.021 0.029-0.029 0.013-0.010 0.029-0.014 0.041-0.026l1.271-1.191c0.662-0.62 0.753-1.635 0.212-2.362zM2.13 17.77c-0.173 0.093-0.37 0.111-0.558 0.052-0.187-0.058-0.338-0.186-0.427-0.358-0.161-0.314-0.068-0.695 0.214-0.902l1.314-0.632 0.449 1.313-0.992 0.527zM5.628 15.942l-1.548 0.8-0.439-1.283 2.027-1.001-0.040 1.484zM20.727 9.322c0 0.918-0.219 1.785-0.599 2.559l-4.181-1.899c-0.044-0.573-0.341-1.075-0.788-1.388l1.464-4.86c2.378 0.756 4.105 2.974 4.105 5.588zM8.938 9.322c0-3.235 2.644-5.867 5.894-5.867 0.253 0 0.5 0.021 0.745 0.052l-1.432 4.754c-0.019-0.001-0.037-0.006-0.057-0.006-1.033 0-1.873 0.837-1.873 1.867s0.84 1.867 1.873 1.867c0.694 0 1.294-0.383 1.618-0.945l3.862 1.755c-1.075 1.446-2.795 2.39-4.737 2.39-3.25 0-5.894-2.632-5.894-5.867zM14.894 10.122c0 0.441-0.362 0.8-0.806 0.8s-0.806-0.359-0.806-0.8c0-0.441 0.362-0.8 0.806-0.8s0.806 0.359 0.806 0.8zM2.465 25.146c-0.236 0.234-0.619 0.234-0.854 0.001-0.114-0.114-0.176-0.263-0.176-0.423s0.062-0.309 0.176-0.421l0.962-0.958 0.851 0.848-0.959 0.955zM5.679 28.88c-0.236 0.234-0.619 0.235-0.855 0.001-0.114-0.114-0.176-0.263-0.176-0.423s0.062-0.309 0.176-0.421l0.963-0.959 0.852 0.848-0.96 0.955zM9.16 25.411c-0.001 0-0.001 0-0.002 0.001l-1.765 1.76-0.852-0.848 1.763-1.755c0 0 0 0 0-0s0.001-0.001 0.002-0.001c0.040-0.040 0.065-0.088 0.090-0.135 0.007-0.014 0.020-0.026 0.026-0.040 0.017-0.041 0.019-0.085 0.026-0.129 0.003-0.025 0.014-0.047 0.014-0.073 0-0.036-0.013-0.070-0.020-0.106-0.006-0.032-0.006-0.065-0.019-0.095-0.020-0.050-0.055-0.094-0.091-0.138-0.010-0.012-0.014-0.027-0.025-0.038 0 0 0 0-0.001 0s-0.001-0.002-0.001-0.002l-1.607-1.6c-0.017-0.017-0.039-0.024-0.058-0.038-0.028-0.022-0.055-0.042-0.087-0.058-0.030-0.015-0.061-0.024-0.093-0.033-0.034-0.010-0.067-0.017-0.103-0.020-0.033-0.002-0.063 0.001-0.095 0.005-0.036 0.004-0.069 0.009-0.104 0.020-0.034 0.011-0.063 0.027-0.094 0.045-0.020 0.011-0.042 0.015-0.061 0.029l-1.773 1.324-0.901-0.897 2.399-2.386 4.361 4.289-0.928 0.919zM15.979 18.394c-0.015-0.002-0.030 0.004-0.045 0.003-0.039-0.002-0.076 0.001-0.115 0.007-0.030 0.005-0.059 0.011-0.088 0.021-0.034 0.012-0.065 0.028-0.097 0.047-0.030 0.018-0.057 0.037-0.083 0.061-0.013 0.011-0.028 0.017-0.040 0.029l-4.698 5.146-4.328-4.257 2.833-2.818c0.209-0.208 0.21-0.546 0.002-0.755-0.105-0.105-0.243-0.157-0.381-0.156v-0.001l-2.219 0.013 0.028-1.607 3.104 0.027c1.265 1.294 3.029 2.101 4.981 2.101 0.437 0 0.864-0.045 1.279-0.123 0.040 0.032 0.079 0.065 0.13 0.085l2.41 0.96 0.152 0.758 0.178 0.885-3.003-0.427zM20.020 18.572l-0.313-1.558 1.446-1.080 0.947 1.257-2.080 1.381zM23.774 15.741l-0.838 0.785-0.931-1.236 0.831-0.637c0.155-0.119 0.351-0.168 0.543-0.143 0.193 0.027 0.364 0.128 0.48 0.284 0.217 0.292 0.18 0.699-0.085 0.947z"></path>
<path fill="#2e2f42" style="fill: var(--color1, #2e2f42)" d="M13.602 18.544l-2.143-2.133c-0.207-0.207-0.545-0.207-0.753 0l-2.142 2.133c-0.1 0.101-0.157 0.236-0.157 0.378s0.056 0.278 0.157 0.378l2.142 2.133c0.104 0.103 0.241 0.155 0.377 0.155s0.273-0.052 0.376-0.155l2.143-2.133c0.1-0.1 0.157-0.236 0.157-0.378s-0.057-0.278-0.157-0.378zM11.083 20.303l-1.387-1.381 1.387-1.381 1.387 1.381-1.387 1.381z"></path>
<path fill="#2e2f42" style="fill: var(--color1, #2e2f42)" d="M17.164 5.071l-0.258 1.036c0.071 0.018 1.738 0.452 1.738 2.149h1.067c-0-2.017-1.666-2.965-2.547-3.185z"></path>
<path fill="#2e2f42" style="fill: var(--color1, #2e2f42)" d="M19.711 9.322h-1.067v1.067h1.067v-1.067z"></path>
</symbol>

<symbol id="icon-clock" viewBox="0 0 32 32">
<path fill="#2e2f42" style="fill: var(--color1, #2e2f42)" d="M31.297 15.301c-0.002-8.452-6.855-15.303-15.308-15.301s-15.303 6.855-15.301 15.308c0.001 6.658 4.307 12.551 10.649 14.576 0.061 0.019 0.124 0.029 0.187 0.029 0.121-0 0.239-0.032 0.342-0.094 0.135-0.080 0.236-0.207 0.283-0.356l3.865-12.25c1.057-0.005 1.909-0.866 1.903-1.923s-0.866-1.909-1.923-1.903c-0.284 0.001-0.565 0.067-0.82 0.191l-5.106-5.107c-0.253-0.245-0.657-0.238-0.902 0.016-0.239 0.247-0.239 0.639 0 0.886l5.103 5.109c-0.392 0.799-0.168 1.764 0.536 2.309l-3.683 11.673c-7.278-2.681-11.004-10.754-8.323-18.032s10.754-11.004 18.032-8.323c7.278 2.681 11.004 10.754 8.323 18.032-1.31 3.556-4.001 6.431-7.462 7.973l-0.398-1.874c-0.073-0.345-0.411-0.565-0.756-0.492-0.109 0.023-0.209 0.074-0.293 0.148l-3.837 3.426c-0.263 0.234-0.287 0.637-0.052 0.9 0.076 0.085 0.174 0.149 0.283 0.184l4.899 1.564c0.335 0.108 0.694-0.077 0.802-0.412 0.034-0.106 0.040-0.219 0.017-0.328l-0.391-1.839c5.664-2.388 9.342-7.942 9.329-14.089zM15.992 14.664c0.352 0 0.638 0.286 0.638 0.638s-0.286 0.638-0.638 0.638c-0.352 0-0.638-0.285-0.638-0.638s0.285-0.638 0.638-0.638zM18.093 29.528l2.184-1.948 0.603 2.84-2.787-0.892z"></path>
<path fill="#4d5ae5" style="fill: var(--color2, #4d5ae5)" d="M15.354 3.185v1.275c0 0.352 0.285 0.638 0.638 0.638s0.638-0.285 0.638-0.638v-1.275c0-0.352-0.286-0.638-0.638-0.638s-0.638 0.286-0.638 0.638z"></path>
<path fill="#4d5ae5" style="fill: var(--color2, #4d5ae5)" d="M3.876 14.664c-0.352 0-0.638 0.286-0.638 0.638s0.285 0.638 0.638 0.638h1.275c0.352 0 0.638-0.285 0.638-0.638s-0.285-0.638-0.638-0.638h-1.275z"></path>
<path fill="#4d5ae5" style="fill: var(--color2, #4d5ae5)" d="M28.108 15.939c0.352 0 0.638-0.285 0.638-0.638s-0.285-0.638-0.638-0.638h-1.275c-0.352 0-0.638 0.286-0.638 0.638s0.286 0.638 0.638 0.638h1.275z"></path>
</symbol>

<symbol id="icon-diagram" viewBox="0 0 32 32">
<path fill="#4d5ae5" style="fill: var(--color2, #4d5ae5)" d="M14.925 14.965h1.066v4.798h-1.066v-4.797z"></path>
<path fill="#4d5ae5" style="fill: var(--color2, #4d5ae5)" d="M19.19 17.097h1.066v2.665h-1.066v-2.665z"></path>
<path fill="#4d5ae5" style="fill: var(--color2, #4d5ae5)" d="M10.661 18.696h1.066v1.066h-1.066v-1.066z"></path>
<path fill="#4d5ae5" style="fill: var(--color2, #4d5ae5)" d="M7.463 18.163h1.066v1.599h-1.066v-1.599z"></path>
<path fill="#2e2f42" style="fill: var(--color1, #2e2f42)" d="M1.599 28.291h25.587c0.883 0 1.599-0.716 1.599-1.599v-2.132c0-0.883-0.716-1.599-1.599-1.599h-0.533v-13.293l3.028-2.868c0.703 0.346 1.553 0.136 2.013-0.499s0.396-1.508-0.152-2.068-1.42-0.644-2.065-0.198c-0.644 0.446-0.873 1.292-0.542 2.002l-2.281 2.163v-1.23c0-0.883-0.716-1.599-1.599-1.599h-21.322c-0.883 0-1.599 0.716-1.599 1.599v15.992h-0.533c-0.883 0-1.599 0.716-1.599 1.599v2.132c0 0.883 0.716 1.599 1.599 1.599zM30.384 4.837c0.294 0 0.533 0.239 0.533 0.533s-0.239 0.533-0.533 0.533c-0.294 0-0.533-0.239-0.533-0.533s0.239-0.533 0.533-0.533zM3.198 6.969c0-0.294 0.239-0.533 0.533-0.533h21.322c0.294 0 0.533 0.239 0.533 0.533v2.239l-1.066 1.013v-2.186c0-0.294-0.239-0.533-0.533-0.533h-19.19c-0.294 0-0.533 0.239-0.533 0.533v13.326c0 0.294 0.239 0.533 0.533 0.533h19.19c0.294 0 0.533-0.239 0.533-0.533v-9.674l1.066-1.010v12.284h-22.388v-15.992zM7.996 13.899c-0.721-0.002-1.354 0.478-1.546 1.174s0.105 1.433 0.725 1.801c0.62 0.368 1.41 0.276 1.928-0.226l1.853 0.93c0.215 0.108 0.476 0.057 0.636-0.123l3.939-4.431 3.872 2.901c0.208 0.156 0.498 0.139 0.686-0.039l3.365-3.188v8.131h-18.124v-12.26h18.124v2.66l-3.771 3.572-3.904-2.927c-0.222-0.166-0.534-0.135-0.718 0.072l-3.993 4.493-1.493-0.746c0.011-0.064 0.018-0.129 0.020-0.193 0-0.883-0.716-1.599-1.599-1.599zM8.529 15.498c0 0.294-0.239 0.533-0.533 0.533s-0.533-0.239-0.533-0.533c0-0.294 0.239-0.533 0.533-0.533s0.533 0.239 0.533 0.533zM11.727 24.027h5.331v0.533c0 0.294-0.239 0.533-0.533 0.533h-4.264c-0.294 0-0.533-0.239-0.533-0.533v-0.533zM1.066 24.56c0-0.294 0.239-0.533 0.533-0.533h9.062v0.533c0 0.883 0.716 1.599 1.599 1.599h4.264c0.883 0 1.599-0.716 1.599-1.599v-0.533h9.062c0.294 0 0.533 0.239 0.533 0.533v2.132c0 0.294-0.239 0.533-0.533 0.533h-25.587c-0.294 0-0.533-0.239-0.533-0.533v-2.132z"></path>
</symbol>

<symbol id="icon-facebook" viewBox="0 0 32 32">
<path d="M21.329 5.313h2.921v-5.088c-0.504-0.069-2.237-0.225-4.256-0.225-4.212 0-7.097 2.649-7.097 7.519v4.481h-4.648v5.688h4.648v14.312h5.699v-14.311h4.46l0.708-5.688h-5.169v-3.919c0.001-1.644 0.444-2.769 2.735-2.769z"></path>
</symbol>

<symbol id="icon-instagram" viewBox="0 0 32 32">
<path d="M31.969 9.408c-0.075-1.7-0.35-2.869-0.744-3.882-0.406-1.075-1.031-2.038-1.85-2.838-0.8-0.813-1.769-1.444-2.832-1.844-1.019-0.394-2.182-0.669-3.882-0.744-1.713-0.081-2.257-0.1-6.601-0.1s-4.888 0.019-6.595 0.094c-1.7 0.075-2.869 0.35-3.882 0.744-1.075 0.406-2.038 1.031-2.838 1.85-0.813 0.8-1.444 1.769-1.844 2.832-0.394 1.019-0.669 2.182-0.744 3.882-0.081 1.713-0.1 2.257-0.1 6.601s0.019 4.888 0.094 6.595c0.075 1.7 0.35 2.869 0.744 3.882 0.406 1.075 1.038 2.038 1.85 2.838 0.8 0.813 1.769 1.444 2.832 1.844 1.019 0.394 2.182 0.669 3.882 0.744 1.706 0.075 2.25 0.094 6.595 0.094s4.888-0.019 6.595-0.094c1.7-0.075 2.869-0.35 3.882-0.744 2.151-0.831 3.851-2.532 4.682-4.682 0.394-1.019 0.669-2.182 0.744-3.882 0.075-1.707 0.094-2.25 0.094-6.595s-0.006-4.888-0.081-6.595zM29.087 22.473c-0.069 1.563-0.331 2.407-0.55 2.969-0.538 1.394-1.644 2.5-3.038 3.038-0.563 0.219-1.413 0.481-2.969 0.55-1.688 0.075-2.194 0.094-6.464 0.094s-4.782-0.019-6.464-0.094c-1.563-0.069-2.407-0.331-2.969-0.55-0.694-0.256-1.325-0.663-1.838-1.194-0.531-0.519-0.938-1.144-1.194-1.838-0.219-0.563-0.481-1.413-0.55-2.969-0.075-1.688-0.094-2.194-0.094-6.464s0.019-4.782 0.094-6.464c0.069-1.563 0.331-2.407 0.55-2.969 0.256-0.694 0.663-1.325 1.2-1.838 0.519-0.531 1.144-0.938 1.838-1.194 0.563-0.219 1.413-0.481 2.969-0.55 1.688-0.075 2.194-0.094 6.464-0.094 4.276 0 4.782 0.019 6.464 0.094 1.563 0.069 2.407 0.331 2.969 0.55 0.694 0.256 1.325 0.662 1.838 1.194 0.531 0.519 0.938 1.144 1.194 1.838 0.219 0.563 0.481 1.413 0.55 2.969 0.075 1.688 0.094 2.194 0.094 6.464s-0.019 4.77-0.094 6.458z"></path>
<path d="M16.059 7.783c-4.538 0-8.22 3.682-8.22 8.22s3.682 8.22 8.22 8.22c4.538 0 8.22-3.682 8.22-8.22s-3.682-8.22-8.22-8.22zM16.059 21.335c-2.944 0-5.332-2.388-5.332-5.332s2.388-5.332 5.332-5.332c2.944 0 5.332 2.388 5.332 5.332s-2.388 5.332-5.332 5.332z"></path>
<path d="M26.524 7.458c0 1.060-0.859 1.919-1.919 1.919s-1.919-0.859-1.919-1.919c0-1.060 0.859-1.919 1.919-1.919s1.919 0.859 1.919 1.919z"></path>
</symbol>

<symbol id="icon-linkedin" viewBox="0 0 32 32">
<path d="M31.992 32v-0.001h0.008v-11.736c0-5.741-1.236-10.164-7.948-10.164-3.227 0-5.392 1.771-6.276 3.449h-0.093v-2.913h-6.364v21.364h6.627v-10.579c0-2.785 0.528-5.479 3.977-5.479 3.399 0 3.449 3.179 3.449 5.657v10.401h6.62z"></path>
<path d="M0.528 10.636h6.635v21.364h-6.635v-21.364z"></path>
<path d="M3.843-0c-2.121 0-3.843 1.721-3.843 3.843s1.721 3.879 3.843 3.879c2.121 0 3.843-1.757 3.843-3.879-0.001-2.121-1.723-3.843-3.843-3.843v0z"></path>
</symbol>

<symbol id="icon-twitter" viewBox="0 0 32 32">
<path d="M32 6.078c-1.19 0.522-2.458 0.868-3.78 1.036 1.36-0.812 2.398-2.088 2.886-3.626-1.268 0.756-2.668 1.29-4.16 1.588-1.204-1.282-2.92-2.076-4.792-2.076-3.632 0-6.556 2.948-6.556 6.562 0 0.52 0.044 1.020 0.152 1.496-5.454-0.266-10.28-2.88-13.522-6.862-0.566 0.982-0.898 2.106-0.898 3.316 0 2.272 1.17 4.286 2.914 5.452-1.054-0.020-2.088-0.326-2.964-0.808 0 0.020 0 0.046 0 0.072 0 3.188 2.274 5.836 5.256 6.446-0.534 0.146-1.116 0.216-1.72 0.216-0.42 0-0.844-0.024-1.242-0.112 0.85 2.598 3.262 4.508 6.13 4.57-2.232 1.746-5.066 2.798-8.134 2.798-0.538 0-1.054-0.024-1.57-0.090 2.906 1.874 6.35 2.944 10.064 2.944 12.072 0 18.672-10 18.672-18.668 0-0.29-0.010-0.57-0.024-0.848 1.302-0.924 2.396-2.078 3.288-3.406z"></path>
</symbol>

<symbol id="icon-client1" viewBox="0 0 32 32">
<path fill="#8e8f99" d="m6.128 0 4.771 4.546-8.856-.005v22.054h23.149v-8.432l4.766 4.541V.001H6.128zm18.854 17.629L11.454 4.74h13.528v12.889zm-4.2 5.74H5.706V8.536h1.066v13.828h14.01v1.004zM8.712 30.68l-.562-1.155h-.464l.814 1.529v.891h.421v-.891l.815-1.529h-.462l-.562 1.155zm2.071-1.155h.1l.914 2.42h-.439l-.196-.567h-.937l-.195.567h-.437l.911-2.42h.279zm-.443 1.522h.709l-.355-1.027-.354 1.027zm2.924-.401-.053-.068a1.266 1.266 0 0 1-.145-.238.647.647 0 0 1 .026-.565.519.519 0 0 1 .221-.209.71.71 0 0 1 .334-.075c.123 0 .229.025.317.075.09.049.158.114.206.194.049.081.073.17.073.266 0 .076-.014.146-.042.209s-.066.121-.115.173a1.188 1.188 0 0 1-.17.148l-.168.122.479.566a.966.966 0 0 0 .105-.452h.346c0 .117-.012.229-.035.334a1.039 1.039 0 0 1-.177.4l.355.418h-.464l-.141-.165a.952.952 0 0 1-.248.136 1.107 1.107 0 0 1-.376.063c-.161 0-.3-.029-.417-.088s-.208-.14-.273-.243a.665.665 0 0 1-.095-.354c0-.099.021-.185.061-.259a.797.797 0 0 1 .168-.209c.066-.059.14-.119.224-.178zm.199.243-.05.036a.61.61 0 0 0-.131.138.394.394 0 0 0-.023.409.344.344 0 0 0 .135.138c.06.033.132.05.218.05a.62.62 0 0 0 .391-.137l-.539-.633zm.096-.442.148-.1a.552.552 0 0 0 .15-.136.3.3 0 0 0 .045-.17.241.241 0 0 0-.255-.233.246.246 0 0 0-.231.143.338.338 0 0 0-.028.141c0 .05.013.101.038.155a.994.994 0 0 0 .133.2zm4.234.71h-.416a.776.776 0 0 1-.076.268.383.383 0 0 1-.168.165.626.626 0 0 1-.288.056c-.098 0-.181-.019-.251-.058s-.127-.094-.173-.165a.822.822 0 0 1-.1-.254 1.62 1.62 0 0 1-.032-.332v-.204c0-.129.012-.243.035-.342.024-.101.06-.186.108-.254s.107-.121.178-.156a.557.557 0 0 1 .249-.053c.116 0 .211.02.283.06a.378.378 0 0 1 .163.17.756.756 0 0 1 .073.268h.416a1.046 1.046 0 0 0-.136-.43c-.073-.125-.176-.223-.309-.294s-.296-.106-.489-.106c-.152 0-.289.027-.411.08a.862.862 0 0 0-.311.231c-.086.1-.153.22-.2.361a1.546 1.546 0 0 0-.068.472v.201c0 .174.022.331.067.472.045.141.111.261.196.361a.878.878 0 0 0 .307.229c.12.053.254.08.404.08.195 0 .361-.035.497-.106s.242-.168.317-.291a.958.958 0 0 0 .133-.424zm2.309-.356v-.133c0-.183-.024-.346-.073-.49a1.08 1.08 0 0 0-.204-.371.868.868 0 0 0-.317-.234 1.005 1.005 0 0 0-.409-.081c-.148 0-.284.027-.407.081a.876.876 0 0 0-.317.234 1.084 1.084 0 0 0-.206.371 1.52 1.52 0 0 0-.073.49v.133c0 .183.024.347.073.492.05.145.12.269.209.371s.196.18.317.234c.123.053.259.08.407.08.15 0 .286-.027.409-.08a.879.879 0 0 0 .316-.234c.089-.102.157-.226.204-.371s.072-.309.072-.492zm-.418-.136v.136c0 .135-.013.255-.04.359a.777.777 0 0 1-.113.264.493.493 0 0 1-.431.214.556.556 0 0 1-.246-.053.527.527 0 0 1-.186-.161c-.051-.072-.09-.16-.116-.264s-.04-.224-.04-.359v-.136c0-.135.013-.254.04-.357a.784.784 0 0 1 .115-.261.5.5 0 0 1 .43-.215c.092 0 .175.018.248.055a.47.47 0 0 1 .184.16c.051.07.089.157.115.261.027.103.04.222.04.357z" style="fill:var(--color3, #8e8f99)"/>
</symbol>

<symbol id="icon-client2" viewBox="0 0 32 32">
<path fill="#8e8f99" d="M14.224 1.806h-.084a9.985 9.985 0 0 0-.388-.014h-.28c-.244 0-.494.006-.741.019a.523.523 0 0 0-.056 0 17.4 17.4 0 0 0-6.471 1.651l-.266.128v13.625l.623-.211a23.32 23.32 0 0 1 1.731-.513 21.155 21.155 0 0 1 4.982-.662v1.79a15.56 15.56 0 0 0-.655.019h-.051a19.948 19.948 0 0 0-3.833.588c-1.59.398-3.124.996-4.566 1.779V2.53A18.3 18.3 0 0 1 8.959.582 18.343 18.343 0 0 1 13.474 0h.263c.314.008.621.022.909.044.759.053 1.511.173 2.249.358v1.762a13.947 13.947 0 0 0-2.179-.329l-.045-.004c-.152-.013-.304-.026-.446-.026zm3.101 1.801c.391.03.796.044 1.205.044a19.352 19.352 0 0 0 4.747-.609c1.589-.4 3.123-.998 4.564-1.781v17.163a18.313 18.313 0 0 1-4.792 1.948 18.486 18.486 0 0 1-4.515.581 13.778 13.778 0 0 1-3.425-.404V3.274c.265.061.537.117.814.164.455.077.934.133 1.401.167zm8.735.133-.623.21c-.573.192-1.15.365-1.731.518a21.098 21.098 0 0 1-5.173.663c-.406 0-.78-.011-1.141-.034l-.497-.033v14.017l.427.038c.395.034.803.052 1.214.052a16.573 16.573 0 0 0 4.074-.527 17.107 17.107 0 0 0 3.184-1.144l.266-.128V3.742zM5.377 25.977a.912.912 0 0 0-.693-.28 1.034 1.034 0 0 0-.4.075.91.91 0 0 0-.512.518 1.023 1.023 0 0 0-.072.387v2.335c-.006.165.026.328.092.479.055.12.135.226.234.313a.815.815 0 0 0 .321.166c.114.032.231.048.349.049a.972.972 0 0 0 .892-.61.951.951 0 0 0 .075-.372v-.261h-.61v.208a.528.528 0 0 1-.036.208.359.359 0 0 1-.089.131.365.365 0 0 1-.128.067.425.425 0 0 1-.128.022.314.314 0 0 1-.286-.125.548.548 0 0 1-.081-.313v-2.177a.738.738 0 0 1 .075-.349.31.31 0 0 1 .299-.141.33.33 0 0 1 .272.131c.068.09.104.2.101.313v.202h.604v-.238a1.093 1.093 0 0 0-.279-.737zM9.002 25.95a1.051 1.051 0 0 0-1.38 0 .961.961 0 0 0-.237.327 1.099 1.099 0 0 0-.089.452v2.239a1.08 1.08 0 0 0 .089.459c.055.12.136.227.237.313a.94.94 0 0 0 .322.197 1.028 1.028 0 0 0 .728 0c.121-.044.233-.111.33-.197a.948.948 0 0 0 .23-.313 1.08 1.08 0 0 0 .089-.459v-2.239a1.08 1.08 0 0 0-.089-.452 1.015 1.015 0 0 0-.23-.327zm-.284 3.019a.405.405 0 0 1-.121.324.445.445 0 0 1-.574 0 .397.397 0 0 1-.121-.324V26.73a.405.405 0 0 1 .121-.324.445.445 0 0 1 .574 0 .397.397 0 0 1 .121.324v2.239zM13.764 29.969V25.73h-.587l-.771 2.244h-.011l-.777-2.244h-.581v4.239h.606V27.39h.011l.593 1.823h.302l.598-1.823h.011v2.579h.606zM17.205 26.027a.84.84 0 0 0-.343-.232 1.363 1.363 0 0 0-.439-.066h-.9v4.239h.604v-1.656h.311c.189.009.376-.031.545-.116a.882.882 0 0 0 .332-.324 1.02 1.02 0 0 0 .139-.369c.024-.16.035-.321.033-.482a2.421 2.421 0 0 0-.059-.606.898.898 0 0 0-.223-.39zm-.311 1.292a.547.547 0 0 1-.056.221.346.346 0 0 1-.156.149.619.619 0 0 1-.285.053h-.276v-1.441h.311a.578.578 0 0 1 .272.053.349.349 0 0 1 .142.157.62.62 0 0 1 .053.236v.282c0 .099.006.2 0 .291h-.006zM20.066 25.73h-.495l-.934 4.239h.604l.177-.911h.823l.177.911h.604l-.957-4.239zm-.557 2.751.297-1.537h.011l.296 1.537h-.604zM23.969 28.284h-.011l-.912-2.554h-.581v4.239h.604V27.42h.012l.923 2.549h.568V25.73h-.604v2.554zM27.66 25.73l-.486 1.685h-.012l-.486-1.685h-.64l.83 2.447v1.792h.604v-1.792l.83-2.447h-.64zM3.692 31.166h.291v.817h.198v-.817h.29v-.167h-.778v.167zM6.14 30.998l-.381.984h.21l.081-.224h.392l.084.224h.215l-.391-.984h-.21zm-.032.595.134-.365.134.365h-.268zM8.559 31.62h.227v.127a.38.38 0 0 1-.233.083.244.244 0 0 1-.209-.093.411.411 0 0 1-.073-.257c0-.219.095-.329.283-.329a.206.206 0 0 1 .222.157l.195-.038c-.042-.192-.181-.289-.417-.289a.495.495 0 0 0-.344.127.494.494 0 0 0-.141.379.532.532 0 0 0 .126.369.477.477 0 0 0 .374.144.59.59 0 0 0 .417-.157v-.388h-.427v.166zM11.029 30.998h-.199v.984h.69v-.167h-.49v-.817zM13.118 30.998h-.199v.984h.199v-.984zM15.161 31.656l-.403-.657h-.193v.984h.185v-.643l.395.643h.198v-.984h-.182v.657zM17.007 31.549h.49v-.167h-.49v-.216h.528v-.167h-.727v.984h.747v-.167h-.548v-.266zM21.484 31.387h-.388v-.388h-.198v.984h.198v-.43h.388v.43h.198v-.984h-.198v.388zM23.342 31.549h.492v-.167h-.492v-.216h.529v-.167h-.727v.984h.746v-.167h-.548v-.266zM25.86 31.549c.171-.027.258-.117.258-.274a.236.236 0 0 0-.096-.219.553.553 0 0 0-.288-.058h-.417v.984h.198v-.412h.039a.261.261 0 0 1 .123.022.21.21 0 0 1 .07.072l.215.313h.237l-.12-.192a.685.685 0 0 0-.218-.236zm-.199-.136h-.146v-.247h.156a.526.526 0 0 1 .201.023c.014.013.026.029.033.046a.133.133 0 0 1-.005.111.128.128 0 0 1-.037.043.547.547 0 0 1-.201.023zM27.76 31.549h.49v-.167h-.49v-.216h.529v-.167h-.729v.984h.747v-.167h-.548v-.266z" style="fill:var(--color3, #8e8f99)"/>
</symbol>

<symbol id="icon-client3" viewBox="0 0 32 32">
<path fill="#8e8f99" d="M4.953 30.344a.098.098 0 0 1 .062.024l.161.151a1.32 1.32 0 0 1-.452.286 1.776 1.776 0 0 1-.64.103 1.723 1.723 0 0 1-.602-.096 1.339 1.339 0 0 1-.454-.271 1.211 1.211 0 0 1-.293-.419 1.367 1.367 0 0 1-.102-.537 1.294 1.294 0 0 1 .11-.539c.07-.156.176-.298.311-.419.137-.118.301-.211.482-.273.198-.065.408-.098.62-.096.197-.004.393.026.576.087.159.059.305.141.432.242l-.135.161a.137.137 0 0 1-.034.029.092.092 0 0 1-.054.012.127.127 0 0 1-.058-.017l-.072-.043-.1-.055a1.147 1.147 0 0 0-.318-.096 1.47 1.47 0 0 0-.239-.017 1.316 1.316 0 0 0-.446.072 1.042 1.042 0 0 0-.349.202.931.931 0 0 0-.227.323 1.065 1.065 0 0 0-.082.425c-.002.147.025.293.082.432a.924.924 0 0 0 .556.52c.131.046.272.07.414.069a1.82 1.82 0 0 0 .245-.014.981.981 0 0 0 .53-.221.122.122 0 0 1 .076-.027zM9.59 29.586a1.28 1.28 0 0 1-.108.533c-.065.155-.168.296-.302.414s-.296.211-.475.272a1.986 1.986 0 0 1-1.22 0 1.419 1.419 0 0 1-.472-.273 1.202 1.202 0 0 1-.305-.419 1.368 1.368 0 0 1 0-1.069c.069-.156.172-.299.305-.42.135-.114.295-.204.472-.262a1.96 1.96 0 0 1 1.221 0c.178.062.34.155.474.273a1.233 1.233 0 0 1 .411.95zm-.422 0a1.13 1.13 0 0 0-.076-.429.882.882 0 0 0-.554-.523 1.43 1.43 0 0 0-.887 0 .956.956 0 0 0-.339.202.867.867 0 0 0-.217.321 1.241 1.241 0 0 0 0 .858.867.867 0 0 0 .217.321c.094.088.21.156.339.201.286.091.601.091.887 0a.954.954 0 0 0 .339-.201.907.907 0 0 0 .215-.321c.054-.138.08-.283.076-.429zM12.754 30.035l.042.096c.016-.034.03-.065.046-.096a.862.862 0 0 1 .052-.094l1.026-1.593c.02-.027.038-.045.058-.05a.297.297 0 0 1 .084-.009h.303v2.592h-.359V28.894a.66.66 0 0 1 0-.089l-1.032 1.616c-.013.024-.034.045-.06.059s-.057.022-.088.022h-.058c-.031 0-.062-.007-.088-.021s-.047-.035-.06-.059l-1.062-1.626v2.081h-.347v-2.586h.303a.297.297 0 0 1 .084.009.11.11 0 0 1 .056.05l1.048 1.595a.47.47 0 0 1 .052.093zM16.614 29.907v.971h-.402V28.29h.895c.169-.003.338.016.5.057.13.032.25.086.353.161.089.07.158.157.201.254a.765.765 0 0 1 .068.331.724.724 0 0 1-.291.59 1.046 1.046 0 0 1-.355.172c-.156.043-.32.063-.484.06l-.486-.007zm0-.278h.486c.106.001.211-.012.311-.039a.696.696 0 0 0 .225-.111.488.488 0 0 0 .185-.39c.005-.072-.009-.144-.04-.211s-.079-.127-.14-.177a.875.875 0 0 0-.54-.139h-.486v1.067zM22.011 30.881h-.317a.155.155 0 0 1-.088-.024.156.156 0 0 1-.052-.06l-.273-.626H19.91l-.283.626a.15.15 0 0 1-.14.084h-.317l1.204-2.592h.418l1.221 2.592zm-1.988-.962h1.132l-.478-1.055a1.556 1.556 0 0 1-.09-.244l-.046.136c-.014.041-.03.079-.044.11l-.474 1.053zM23.745 28.301a.163.163 0 0 1 .06.046l1.757 1.954v-2.012h.359v2.592h-.201a.203.203 0 0 1-.082-.015.207.207 0 0 1-.064-.048l-1.755-1.952a.66.66 0 0 1 0 .089v1.926h-.359v-2.592h.213a.195.195 0 0 1 .072.012zM28.88 29.85v1.029h-.402V29.85l-1.11-1.561h.359a.14.14 0 0 1 .086.022c.022.017.04.036.054.058l.695 1.007a1.05 1.05 0 0 1 .122.23l.052-.111a.925.925 0 0 1 .068-.118l.684-1.014a.27.27 0 0 1 .052-.055.137.137 0 0 1 .086-.026h.363l-1.112 1.568zM12.555 23.94c.175.019.351.034.53.048 2.709-1.035 5-2.73 6.588-4.872s2.402-4.636 2.339-7.171l-2.985-2.551c.607 2.699.323 5.489-.82 8.058s-3.1 4.815-5.652 6.488z" style="fill:var(--color3, #8e8f99)"/>
<path fill="#8e8f99" d="m11.489 23.821.08.014c2.727-1.667 4.806-3.994 5.969-6.681s1.355-5.61.552-8.392l-4.252-3.633c1.72 2.986 2.412 6.328 1.996 9.637s-1.923 6.449-4.345 9.055zM25.909 14.94c-.722 2.785-2.477 5.297-5.003 7.163a15.948 15.948 0 0 1-2.377 1.458c2.057-.517 3.947-1.43 5.526-2.669s2.803-2.772 3.578-4.48l-1.724-1.472z" style="fill:var(--color3, #8e8f99)"/>
<path fill="#8e8f99" d="m25.233 14.53-2.455-2.098c-.047 2.392-.843 4.729-2.305 6.769s-3.537 3.708-6.008 4.831h.012c.551 0 1.101-.028 1.648-.084 2.31-.806 4.351-2.087 5.94-3.731s2.678-3.597 3.168-5.688zM11.844 3.597 8.915 1.091c-2.618.865-4.87 2.384-6.461 4.36S.008 9.768 0 12.166c.01 2.65 1.054 5.222 2.967 7.308s4.586 3.568 7.595 4.21c2.686-2.796 4.259-6.252 4.49-9.864s-.893-7.193-3.207-10.223zM32 14.144c-.011-3.144-1.477-6.157-4.079-8.38s-6.129-3.476-9.809-3.485c-1.7-.002-3.387.267-4.973.791l17.933 15.322c.614-1.354.929-2.794.928-4.247z" style="fill:var(--color3, #8e8f99)"/>
</symbol>

<symbol id="icon-client4" viewBox="0 0 60 32">
<path fill="#8e8f99" d="M11.628 8.523h-.002c-1.624 0-2.941 1.187-2.941 2.652v.002c0 1.464 1.317 2.652 2.941 2.652h.002c1.624 0 2.941-1.187 2.941-2.652v-.002c0-1.464-1.317-2.652-2.941-2.652zM33.335 7.675c-.005-2.034-.903-3.984-2.498-5.422S27.08.004 24.824 0c-2.257.004-4.42.813-6.016 2.252s-2.494 3.389-2.499 5.423v11.216s17.024-1.709 17.026-11.215v-.002zM2.723 22.573c.004 1.415.629 2.772 1.739 3.773s2.614 1.565 4.184 1.569c1.569-.004 3.073-.568 4.183-1.569s1.735-2.356 1.74-3.771V14.77S2.724 15.96 2.724 22.573zm5.923 1.399c-.307 0-.607-.082-.862-.236s-.454-.372-.571-.628-.148-.537-.088-.808.208-.52.424-.716.493-.329.794-.383c.301-.054.613-.026.896.08s.526.285.696.515a1.289 1.289 0 0 1 .145 1.314 1.377 1.377 0 0 1-.336.455c-.144.13-.315.234-.504.304s-.391.107-.595.107v-.005zM19.478 21.457v2.904h-.598v-2.904h.598zm1.157 1.241v.467h-1.32v-.467h1.32zm.14-1.241v.469h-1.46v-.469h1.46zm2.733 1.384v.138c0 .221-.03.419-.09.594s-.144.325-.253.449a1.096 1.096 0 0 1-.391.281c-.15.065-.317.098-.501.098-.182 0-.349-.033-.501-.098a1.123 1.123 0 0 1-.391-.281 1.317 1.317 0 0 1-.257-.449 1.834 1.834 0 0 1-.09-.594v-.138c0-.222.03-.42.09-.594a1.31 1.31 0 0 1 .253-.449c.11-.124.241-.218.391-.283.152-.065.318-.098.501-.098.184 0 .35.033.501.098.152.065.282.16.391.283.11.124.195.273.255.449.061.174.092.372.092.594zm-.605.138v-.142c0-.154-.014-.29-.042-.407s-.069-.215-.124-.295a.535.535 0 0 0-.469-.242.535.535 0 0 0-.466.242c-.053.08-.094.178-.122.295s-.042.253-.042.407v.142c0 .153.014.289.042.407a.895.895 0 0 0 .124.297.547.547 0 0 0 .469.243c.101 0 .191-.021.269-.062s.144-.102.197-.181a.938.938 0 0 0 .122-.297c.028-.118.042-.254.042-.407zm2.548.622a.388.388 0 0 0-.024-.14.27.27 0 0 0-.084-.116c-.041-.036-.099-.071-.174-.106s-.171-.071-.289-.108a3.52 3.52 0 0 1-.375-.144 1.54 1.54 0 0 1-.311-.185.83.83 0 0 1-.211-.249.68.68 0 0 1-.076-.329c0-.121.027-.231.08-.329a.754.754 0 0 1 .223-.255c.096-.072.209-.127.339-.166.132-.039.276-.058.433-.058.214 0 .401.039.56.116s.283.183.371.317a.815.815 0 0 1 .134.461h-.594a.444.444 0 0 0-.054-.223.373.373 0 0 0-.16-.154.571.571 0 0 0-.267-.056.614.614 0 0 0-.259.048.348.348 0 0 0-.156.126.306.306 0 0 0-.052.176c0 .049.012.094.036.134.025.04.063.077.112.112s.11.067.181.098c.072.031.155.06.249.09.158.048.297.102.417.162.121.06.222.127.303.201s.142.159.184.253a.796.796 0 0 1 .062.321c0 .126-.025.239-.074.339s-.12.184-.213.253-.204.122-.333.158-.273.054-.433.054c-.144 0-.285-.019-.425-.056a1.272 1.272 0 0 1-.381-.174.844.844 0 0 1-.373-.72h.6c0 .09.014.167.042.229s.067.113.118.152a.513.513 0 0 0 .183.084c.072.017.15.026.235.026a.638.638 0 0 0 .255-.044.314.314 0 0 0 .2-.298zm2.303-2.144v2.904h-.596v-2.904h.596zm.894 0v.469h-2.37v-.469h2.37zm2.29 2.438v.467h-1.546v-.467h1.546zm-1.351-2.438v2.904h-.598v-2.904h.598zm1.149 1.183v.455h-1.344v-.455h1.344zm.2-1.183v.469h-1.544v-.469h1.544zm.351 0h1.083c.222 0 .413.033.572.1.161.067.285.165.371.295s.13.291.13.481a.928.928 0 0 1-.08.401.757.757 0 0 1-.221.277 1.145 1.145 0 0 1-.333.176l-.189.1h-.941l-.004-.467h.7c.105 0 .192-.019.261-.056s.121-.089.156-.156a.478.478 0 0 0 .054-.231c0-.093-.017-.174-.052-.241s-.087-.12-.158-.156-.159-.054-.265-.054h-.485v2.435h-.598v-2.904zm1.624 2.904-.662-1.294.632-.004.67 1.271v.028h-.64zm3.141-1.035h-.74v-.467h.74a.61.61 0 0 0 .279-.056c.072-.039.124-.092.158-.16s.05-.144.05-.229c0-.086-.017-.167-.05-.241s-.086-.134-.158-.18-.165-.068-.279-.068h-.533v2.435h-.598v-2.904h1.131c.227 0 .422.041.584.124.164.081.289.193.375.337s.13.308.13.493c0 .188-.043.35-.13.487s-.211.243-.375.317a1.399 1.399 0 0 1-.584.112zm3.451.569v.467h-1.546v-.467h1.546zm-1.35-2.438v2.904h-.598v-2.904h.598zm1.148 1.183v.455h-1.344v-.455h1.344zm.2-1.183v.469h-1.544v-.469h1.544zm1.689 0v2.904h-.596v-2.904h.596zm.894 0v.469h-2.37v-.469h2.37zm2.29 2.438v.467h-1.546v-.467h1.546zm-1.35-2.438v2.904h-.598v-2.904h.598zm1.149 1.183v.455h-1.344v-.455h1.344zm.199-1.183v.469h-1.544v-.469h1.544zm.351 0h1.083c.222 0 .413.033.573.1.161.067.285.165.371.295s.13.291.13.481a.928.928 0 0 1-.08.401.757.757 0 0 1-.221.277 1.145 1.145 0 0 1-.333.176l-.19.1h-.941l-.004-.467h.7c.105 0 .192-.019.261-.056s.121-.089.156-.156a.478.478 0 0 0 .054-.231c0-.093-.017-.174-.052-.241s-.087-.12-.158-.156a.579.579 0 0 0-.265-.054h-.485v2.435h-.598v-2.904zm1.624 2.904-.662-1.294.632-.004.67 1.271v.028h-.64zm2.505-.76a.388.388 0 0 0-.024-.14.27.27 0 0 0-.084-.116c-.041-.036-.099-.071-.174-.106s-.171-.071-.289-.108a3.52 3.52 0 0 1-.375-.144 1.54 1.54 0 0 1-.311-.185.83.83 0 0 1-.211-.249.68.68 0 0 1-.076-.329c0-.121.027-.231.08-.329a.754.754 0 0 1 .223-.255c.096-.072.209-.127.339-.166.132-.039.276-.058.433-.058.214 0 .401.039.56.116s.283.183.371.317a.815.815 0 0 1 .134.461h-.594a.444.444 0 0 0-.054-.223.373.373 0 0 0-.16-.154.571.571 0 0 0-.267-.056.614.614 0 0 0-.259.048.348.348 0 0 0-.156.126.306.306 0 0 0-.052.176c0 .049.012.094.036.134.025.04.063.077.112.112s.11.067.181.098c.072.031.155.06.249.09.158.048.297.102.417.162.121.06.222.127.303.201s.142.159.184.253a.796.796 0 0 1 .062.321c0 .126-.025.239-.074.339s-.12.184-.213.253-.204.122-.333.158-.273.054-.433.054c-.144 0-.285-.019-.425-.056a1.272 1.272 0 0 1-.381-.174.844.844 0 0 1-.373-.72h.6c0 .09.014.167.042.229s.067.113.118.152a.51.51 0 0 0 .184.084c.072.017.15.026.235.026a.638.638 0 0 0 .255-.044.314.314 0 0 0 .2-.298z" style="fill:var(--color3, #8e8f99)"/>
</symbol>

<symbol id="icon-client5" viewBox="0 0 32 32">
<path fill="#8e8f99" d="M2.434 23.808a.716.716 0 0 1 .188.492c.006.116-.016.233-.067.34s-.127.203-.224.281a1.361 1.361 0 0 1-.845.227H0v-3.115h1.455c.287-.017.572.056.806.207.094.071.168.16.217.261s.071.211.065.321a.669.669 0 0 1-.169.476.808.808 0 0 1-.443.244.869.869 0 0 1 .502.266zm-1.743-.47h.622a.643.643 0 0 0 .396-.103c.047-.038.083-.085.106-.138s.032-.11.027-.166c.004-.056-.005-.113-.028-.166s-.058-.1-.104-.139a.65.65 0 0 0-.407-.105H.691v.817zm1.079 1.195c.05-.039.089-.088.115-.143s.037-.114.032-.174c.004-.06-.008-.12-.034-.176s-.066-.105-.117-.144a.7.7 0 0 0-.423-.113H.691v.857h.661a.702.702 0 0 0 .417-.108zM5.409 25.148l-.81-1.217h-.304v1.217h-.696v-3.115h1.318c.332-.021.661.074.918.265.184.169.295.392.313.628s-.058.471-.215.661c-.163.168-.385.28-.629.317l.862 1.245h-.757zm-1.114-1.642h.57c.396 0 .593-.157.593-.472.004-.064-.007-.128-.032-.189s-.064-.115-.114-.161a.66.66 0 0 0-.448-.126h-.576l.007.948zM9.215 24.521H7.827l-.245.627h-.73l1.274-3.08h.789l1.269 3.08h-.73l-.24-.627zm-.186-.472-.507-1.315-.507 1.315h1.014zM13.98 25.148h-.691l-1.55-2.118v2.118h-.69v-3.115h.69l1.55 2.13v-2.13h.691v3.115zM17.925 24.402a1.437 1.437 0 0 1-.625.549 2.224 2.224 0 0 1-.972.196h-1.231v-3.115h1.231c.336-.008.67.058.972.192.265.12.483.309.625.543.142.253.216.533.216.817s-.074.564-.216.817zm-.791-.075c.197-.207.306-.471.306-.743s-.108-.536-.306-.743a1.287 1.287 0 0 0-.865-.265h-.48v2.016h.48c.316.018.627-.077.865-.265zM9.648 4.707s8.923 3.033 8.734 7.421v7.423s-8.916-3.034-8.73-7.423l-.003-7.421zM26.331 17.813A13.087 13.087 0 0 1 32 15.932v-2.324c-2.345.813-4.333 2.289-5.669 4.204z" style="fill:var(--color3, #8e8f99)"/>
<path fill="#8e8f99" d="M25.318 18.513c1.379-2.5 3.77-4.43 6.682-5.391V6.427s-12.707 4.32-12.439 10.57v10.568s.566-.193 1.457-.555c0-.338 0-.679.041-1.021.263-2.901 1.795-5.59 4.259-7.474z" style="fill:var(--color3, #8e8f99)"/>
<path fill="#8e8f99" d="M24.11 22.439a9.944 9.944 0 0 1 .445-2.164c-1.534 1.628-2.464 3.647-2.657 5.775a8.667 8.667 0 0 0-.034.609 37.889 37.889 0 0 0 2.444-1.16 9.874 9.874 0 0 1-.198-3.06zM24.615 22.477a9.412 9.412 0 0 0 .157 2.771c3.472-1.87 7.373-4.76 7.223-8.252v-.304c-2.48.25-4.801 1.226-6.606 2.779a9.578 9.578 0 0 0-.774 3.007z" style="fill:var(--color3, #8e8f99)"/>
</symbol>

<symbol id="icon-client6" viewBox="0 0 67 32">
<path fill="#e5e5e5" d="M0 0h66.844v32H0V0z" style="fill:var(--color1, #e5e5e5)"/>
<path fill="#fff" d="M-820.622-1921.422h1024V354.134h-1024v-2275.556z" style="fill:var(--color2, #fff)"/>
<path fill="none" stroke="#8e8f99" stroke-width=".711" d="M-24.178-15.289H89.6a2.489 2.489 0 0 1 2.489 2.489v56.889a2.489 2.489 0 0 1-2.489 2.489H-24.178a2.489 2.489 0 0 1-2.489-2.489V-12.8a2.489 2.489 0 0 1 2.489-2.489z" style="stroke:var(--color3, #8e8f99)"/>
<path fill="#8e8f99" d="M33.799 15.249a2.098 2.098 0 0 1-.431-1.417v-2.054c0-.63.143-1.108.428-1.435s.776-.49 1.472-.489c.654 0 1.118.139 1.392.418.299.355.445.79.412 1.229v.483h-1.169v-.489a2.47 2.47 0 0 0-.034-.478.464.464 0 0 0-.167-.284.676.676 0 0 0-.424-.111.714.714 0 0 0-.445.117.55.55 0 0 0-.194.313 2.349 2.349 0 0 0-.046.508v2.492c-.018.24.033.481.15.7.058.074.139.133.233.17s.199.05.302.039c.15.011.299-.03.414-.113a.5.5 0 0 0 .174-.303 2.78 2.78 0 0 0 .036-.499v-.506h1.169v.462c.033.457-.109.911-.404 1.291-.269.305-.726.458-1.399.458s-1.181-.163-1.47-.501zM38.668 15.269c-.295-.32-.443-.786-.443-1.402v-2.16c0-.61.148-1.072.443-1.385s.789-.469 1.482-.468c.688 0 1.179.156 1.474.468.295.313.446.775.446 1.385v2.16c0 .61-.15 1.078-.45 1.4s-.789.483-1.47.483-1.184-.163-1.482-.48zm2.026-.518c.106-.2.154-.42.14-.639v-2.645a1.172 1.172 0 0 0-.138-.627c-.059-.076-.142-.135-.239-.172s-.204-.05-.308-.037c-.105-.013-.212 0-.309.037s-.18.096-.24.172a1.138 1.138 0 0 0-.14.627v2.658c-.015.22.033.439.14.639.068.067.152.121.247.158a.828.828 0 0 0 .6 0 .747.747 0 0 0 .247-.158v-.013zM43.476 9.917h1.259l.947 3.986.968-3.986h1.225l.123 5.753h-.905l-.097-3.998-.935 3.998h-.726l-.968-4.013-.09 4.013h-.915l.114-5.753zM49.41 9.917h1.961c1.13 0 1.695.545 1.695 1.634 0 1.043-.595 1.564-1.784 1.563h-.668v2.557h-1.211l.007-5.753zm1.675 2.459c.12.013.241.004.356-.028s.221-.084.31-.154a.929.929 0 0 0 .174-.65 1.808 1.808 0 0 0-.058-.522c-.017-.057-.048-.111-.089-.158s-.094-.086-.153-.116a1.251 1.251 0 0 0-.54-.092h-.47v1.719h.47zM54.812 9.917h1.3l1.334 5.753h-1.128l-.264-1.327h-1.16l-.271 1.327h-1.145l1.334-5.753zm1.111 3.76-.453-2.415-.453 2.415h.906zM58.523 9.917h.847l1.622 3.282V9.917h1.005v5.753h-.806l-1.632-3.426v3.426H58.52l.002-5.753zM64.351 13.477l-1.349-3.552h1.135l.823 2.281.772-2.281h1.111l-1.332 3.552v2.194h-1.162v-2.194zM35.668 18.186v.301h-.988v2.338h-.414v-2.338h-.993v-.301h2.394zM38.764 20.824h-.32a.143.143 0 0 1-.09-.025.13.13 0 0 1-.053-.061l-.286-.627h-1.37l-.286.627a.172.172 0 0 1-.044.071.153.153 0 0 1-.09.025h-.32l1.211-2.639h.421l1.225 2.628zm-2.004-.979h1.143l-.484-1.074a1.85 1.85 0 0 1-.09-.249c-.017.05-.031.098-.046.14l-.044.111-.479 1.072zM40.851 20.565c.076.003.152.003.228 0a1.651 1.651 0 0 0 .368-.079c.053-.019.107-.042.162-.065v-.593h-.484c-.012.001-.024-.001-.035-.005s-.021-.009-.03-.016a.062.062 0 0 1-.024-.048v-.203h.939v1.011a1.907 1.907 0 0 1-.511.215c-.099.025-.2.043-.303.054a3.775 3.775 0 0 1-.353.017 1.843 1.843 0 0 1-.61-.098 1.492 1.492 0 0 1-.484-.276 1.259 1.259 0 0 1-.312-.418 1.32 1.32 0 0 1-.111-.547 1.356 1.356 0 0 1 .109-.552c.07-.156.176-.299.312-.418a1.47 1.47 0 0 1 .484-.274c.207-.067.427-.101.649-.098.113 0 .225.008.337.023a1.65 1.65 0 0 1 .53.171c.074.041.145.087.211.138l-.116.163c-.009.015-.023.027-.039.036s-.036.014-.055.014a.16.16 0 0 1-.075-.021 1.81 1.81 0 0 1-.119-.063 1.02 1.02 0 0 0-.162-.071 1.524 1.524 0 0 0-.223-.059 1.85 1.85 0 0 0-.307-.023 1.413 1.413 0 0 0-.467.073 1.03 1.03 0 0 0-.356.209.918.918 0 0 0-.225.328 1.236 1.236 0 0 0 0 .88 1.027 1.027 0 0 0 .595.541c.154.046.317.063.479.052zM44.711 20.523h1.322v.301h-1.726v-2.639h.414l-.01 2.338zM47.408 20.824h-.414v-2.639h.414v2.639zM48.948 18.198a.189.189 0 0 1 .063.048l1.77 1.989a.737.737 0 0 1 0-.094v-1.966h.361v2.649h-.208a.197.197 0 0 1-.09-.015.23.23 0 0 1-.065-.05l-1.767-1.987V20.823h-.346v-2.639h.215c.023 0 .047.004.068.012zM54.189 18.186v.29h-1.467v.871h1.189v.28h-1.189v.9h1.467v.29h-1.893v-2.632h1.893zM10.805 1.891l18.384 4.504v15.784l-18.384-4.502V1.891zM9.626.545v17.898l20.739 5.083V5.63L9.626.545z" style="fill:var(--color3, #8e8f99)"/>
<path fill="#8e8f99" d="M20.742 31.834 0 26.747V8.851l20.742 5.085v17.898z" style="fill:var(--color3, #8e8f99)"/>
<path fill="#8e8f99" d="m9.97 1.688 18.144 4.448-7.716 6.66-18.146-4.45L9.97 1.688zM9.626.545 0 8.851l20.742 5.085 9.624-8.306L9.627.545zM21.909 30.827l8.457-7.299-8.457-2.074v9.374z" style="fill:var(--color3, #8e8f99)"/>
</symbol>

</defs>
</svg>

